<svg width="15.000000000000002" height="18" xmlns="http://www.w3.org/2000/svg" fill="none">

 <g>
  <title>Layer 1</title>
  <path id="svg_1" fill="#757575" d="m9.24419,11.5472c0,0.9373 -0.7814,1.6981 -1.74419,1.6981c-0.96279,0 -1.74419,-0.7608 -1.74419,-1.6981c0,-0.9374 0.7814,-1.69814 1.74419,-1.69814c0.96279,0 1.74419,0.76074 1.74419,1.69814zm4.70931,2.5471c0,1.592 -1.33,2.8868 -2.9651,2.8868l-6.97677,0c-1.63518,0 -2.96512,-1.2948 -2.96512,-2.8868l0,-5.0943c0,-1.59198 1.32994,-2.88679 2.96512,-2.88679l6.97677,0c1.6351,0 2.9651,1.29481 2.9651,2.88679l0,5.0943zm-9.41862,-10.18864c0,-1.59198 1.32995,-2.88679 2.96512,-2.88679c0.78488,0 1.53139,0.30056 2.09477,0.84141c0.56163,0.55359 0.87033,1.28038 0.87033,2.04538l0,1.18868l-5.93022,0l0,-1.18868zm6.97672,1.22179l0,-1.22179c0,-1.03415 -0.416,-2.01481 -1.1764,-2.76538c-0.7666,-0.73528 -1.77299,-1.14028 -2.8352,-1.14028c-2.2125,0 -4.01163,1.7516 -4.01163,3.90566l0,1.22179c-1.9657,0.25047 -3.48837,1.8917 -3.48837,3.87255l0,5.0943c0,2.1541 1.79913,3.9057 4.01163,3.9057l6.97677,0c2.2116,0 4.0116,-1.7516 4.0116,-3.9057l0,-5.0943c0,-1.98085 -1.5227,-3.62208 -3.4884,-3.87255z" clip-rule="evenodd" fill-rule="evenodd"/>
  <path id="svg_2" d="m10.57547,4.06533l0.67134,0l0,0.52968l-0.67134,0l0,-0.52968z" opacity="undefined" stroke="#000" fill="#ffffff"/>
 </g>
</svg>